<svg width="512" height="512" viewBox="0 0 512 512" fill="none" xmlns="http://www.w3.org/2000/svg">
<rect width="512" height="512" fill="black"/>
<path d="M256.159 290.506C265.172 290.506 272.479 282.829 272.479 273.358C272.479 263.887 265.172 256.21 256.159 256.21C247.146 256.21 239.839 263.887 239.839 273.358C239.839 282.829 247.146 290.506 256.159 290.506Z" fill="#F5D10D"/>
<path d="M308.714 308.761C316.199 308.761 322.268 302.57 322.268 294.932C322.268 287.294 316.199 281.103 308.714 281.103C301.228 281.103 295.16 287.294 295.16 294.932C295.16 302.57 301.228 308.761 308.714 308.761Z" fill="#F5D10D"/>
<path d="M205.264 308.761C213.666 308.761 220.477 302.817 220.477 295.485C220.477 288.153 213.666 282.209 205.264 282.209C196.861 282.209 190.05 288.153 190.05 295.485C190.05 302.817 196.861 308.761 205.264 308.761Z" fill="#F5D10D"/>
<path d="M217.71 318.441L184.516 318.441L193.834 365.891C204.932 370.853 216.728 374.518 229.032 376.695C227.552 367.832 221.184 335.733 217.71 318.441Z" fill="#F5D10D"/>
<path d="M283.543 297.698L229.327 297.698L236.413 377.813C242.586 378.593 248.874 379.001 255.253 379.014L255.266 379.014C255.471 379.014 255.676 379.014 255.882 379.014C263.193 378.998 270.382 378.464 277.416 377.447C278.405 368.368 281.801 322.073 283.543 297.698Z" fill="#F5D10D"/>
<path d="M326.694 318.441L293.777 318.441L283.993 376.346C295.962 374.071 307.434 370.386 318.234 365.469C320.414 351.867 324.256 331.153 326.694 318.441Z" fill="#F5D10D"/>
<path d="M407.839 225.364C407.662 140.681 339.342 72.1738 255.241 72.3493C171.141 72.5249 103.107 141.316 103.284 225.999C106.378 266.877 112.506 286.014 130.886 313.739L89.6395 379.014L142.172 328.028L240.391 232.7L246.753 138.661L205.539 138.661L210.241 127.598L246.753 127.598L249.243 102.152L263.073 102.152L265.286 127.598L303.182 127.598C302.518 127.598 304.934 134.973 306.224 138.661L267.776 138.661L273.031 232.7L369.851 327.015L423.23 379.014L380.817 312.91C399.286 288.198 407.839 263.954 407.839 225.364Z" fill="#F5D10D"/>
<path d="M118.26 444V440.22L125.05 439.38V402.49L118.89 401.79V398.01H137.37L148.78 428.81L159.49 398.01H177.2V401.79L172.23 402.35C172.183 405.197 172.137 408.09 172.09 411.03C172.09 413.923 172.09 416.817 172.09 419.71V422.3C172.09 425.193 172.09 428.087 172.09 430.98C172.137 433.873 172.183 436.767 172.23 439.66L177.41 440.22V444H155.08V440.22L160.19 439.59C160.283 436.743 160.307 433.967 160.26 431.26C160.26 428.553 160.283 426.057 160.33 423.77L160.47 408.3L148.01 444H142.62L129.25 408.23L129.6 422.23V439.31L135.34 440.22V444H118.26ZM203.367 445.33C200.474 445.33 197.697 444.84 195.037 443.86C192.377 442.833 189.997 441.317 187.897 439.31C185.844 437.257 184.21 434.713 182.997 431.68C181.784 428.647 181.177 425.077 181.177 420.97C181.177 416.957 181.784 413.433 182.997 410.4C184.21 407.367 185.867 404.847 187.967 402.84C190.067 400.787 192.447 399.247 195.107 398.22C197.767 397.193 200.52 396.68 203.367 396.68C206.26 396.68 209.014 397.193 211.627 398.22C214.287 399.2 216.667 400.693 218.767 402.7C220.867 404.707 222.524 407.25 223.737 410.33C224.95 413.363 225.557 416.91 225.557 420.97C225.557 425.03 224.95 428.577 223.737 431.61C222.524 434.643 220.867 437.187 218.767 439.24C216.714 441.247 214.357 442.763 211.697 443.79C209.037 444.817 206.26 445.33 203.367 445.33ZM203.367 441.27C205.747 441.27 207.637 440.383 209.037 438.61C210.484 436.837 211.534 434.433 212.187 431.4C212.84 428.32 213.167 424.843 213.167 420.97C213.167 417.097 212.84 413.643 212.187 410.61C211.534 407.577 210.484 405.173 209.037 403.4C207.637 401.627 205.747 400.74 203.367 400.74C201.034 400.74 199.144 401.627 197.697 403.4C196.25 405.173 195.2 407.577 194.547 410.61C193.894 413.643 193.567 417.097 193.567 420.97C193.567 424.843 193.894 428.32 194.547 431.4C195.2 434.433 196.25 436.837 197.697 438.61C199.144 440.383 201.034 441.27 203.367 441.27ZM257.1 401.79V398.01H275.51V401.79L269.56 402.7V444.14H263.68L239.04 409.98V439.31L247.02 440.22V444H228.54V440.22L234.49 439.38V403.61L233.51 402.28L228.68 401.79V398.01H244.5L265.08 426.29V402.7L257.1 401.79ZM296.284 422.02C296.284 425.053 296.284 428.063 296.284 431.05C296.331 434.037 296.378 437 296.424 439.94H298.734C302.748 439.94 305.898 438.307 308.184 435.04C310.518 431.727 311.684 427.037 311.684 420.97C311.684 414.81 310.518 410.12 308.184 406.9C305.898 403.68 302.771 402.07 298.804 402.07H296.424C296.378 404.963 296.331 407.88 296.284 410.82C296.284 413.76 296.284 416.723 296.284 419.71V422.02ZM279.134 401.79V398.01H299.924C304.918 398.01 309.188 398.943 312.734 400.81C316.281 402.63 319.011 405.243 320.924 408.65C322.838 412.057 323.794 416.14 323.794 420.9C323.794 425.753 322.768 429.907 320.714 433.36C318.661 436.813 315.744 439.45 311.964 441.27C308.231 443.09 303.798 444 298.664 444H279.134V440.22L284.384 439.66C284.478 436.813 284.524 433.92 284.524 430.98C284.524 428.04 284.524 425.077 284.524 422.09V419.71C284.524 416.817 284.524 413.923 284.524 411.03C284.524 408.09 284.478 405.197 284.384 402.35L279.134 401.79ZM341.763 408.72L335.953 426.57H347.433L341.763 408.72ZM322.093 444V440.22L327.763 439.38L341.973 397.94H349.183L363.533 439.87L367.803 440.36V444H346.173V440.36L351.563 439.66L348.693 430.63H334.623L331.823 439.38L337.143 440.22V444H322.093ZM362.97 401.79V398.01H385.51V401.79L380.26 402.42L388.24 420.13L396.29 402.56L391.46 401.79V398.01H405.95V401.79L400.84 402.63L390.27 424.12C390.27 427.667 390.27 430.607 390.27 432.94C390.27 435.273 390.293 437.49 390.34 439.59L396.43 440.22V444H372.42V440.22L378.44 439.59C378.487 437.677 378.51 435.67 378.51 433.57C378.51 431.47 378.51 428.927 378.51 425.94L366.89 402.21L362.97 401.79Z" fill="#F5D10D"/>
</svg>
